<?xml version="1.0" encoding="UTF-8"?>
<svg id="Layer_1" xmlns="http://www.w3.org/2000/svg" version="1.1" viewBox="0 0 1653.5 494.7">
  <!-- Generator: Adobe Illustrator 30.2.1, SVG Export Plug-In . SVG Version: 2.1.1 Build 1)  -->
  <defs>
    <style>
      .st0 {
        fill: #fff;
      }
    </style>
  </defs>
  <rect class="st0" x="266.4" y="36.5" width="198.6" height="421.6"/>
  <path class="st0" d="M265.1,73.1v348.4H80V73.1h185.1M301.6,36.5H43.4v421.6h258.2V36.5h0Z"/>
  <g>
    <path class="st0" d="M575.9,197.4l25.8-2h79.3v40.1h-105.2v-38.2ZM598.8,186.4c0-36.4,16.9-66.4,63.5-66.4s26.8,3.2,34.4,6.1l-9.2,37.7c-5.8-2.3-12.2-3.7-17.9-3.7-12.5,0-19.7,6.9-19.7,24.8v183h-51.1v-181.6Z"/>
    <path class="st0" d="M710.1,314.4V124.3h51.1v192.2c0,11,5.1,14.5,9.3,14.5s3.4,0,6.3-.7l6.1,37.7c-5.7,2.4-14,4.3-25.7,4.3-35.1,0-47.1-22.9-47.1-57.8Z"/>
    <path class="st0" d="M801,143.4c0-15.7,12.4-26.7,29.6-26.7s29.6,11.1,29.6,26.7-12.4,26.7-29.6,26.7-29.6-11.2-29.6-26.7ZM804.9,195.4h51.1v172.6h-51.1v-172.6Z"/>
    <path class="st0" d="M894.6,195.4h41.7l3.7,17h1.3c13.5-12.1,31.1-21.2,49.2-21.2,41.8,0,67.4,34.5,67.4,87.8s-35.2,93.2-72.6,93.2-28.8-6.5-41.2-18l1.7,27.3v50.6h-51.1v-236.7ZM1005.4,279.6c0-31-9.6-46.5-30-46.5s-19.6,4.7-29.7,15.5v70.9c9.3,8.1,18.9,10.9,27.5,10.9,17.8,0,32.1-15.1,32.1-50.8Z"/>
    <path class="st0" d="M1088.5,124.3h50v139.6h1.3l54.8-68.5h55.5l-60.5,71.1,65,101.5h-55.4l-38.8-67.3-21.9,24.8v42.5h-50V124.3Z"/>
    <path class="st0" d="M1271.3,314.4V124.3h51.1v192.2c0,11,5.1,14.5,9.3,14.5s3.4,0,6.3-.7l6.1,37.7c-5.7,2.4-14,4.3-25.7,4.3-35.1,0-47.1-22.9-47.1-57.8Z"/>
    <path class="st0" d="M1362.2,143.4c0-15.7,12.4-26.7,29.6-26.7s29.6,11.1,29.6,26.7-12.4,26.7-29.6,26.7-29.6-11.2-29.6-26.7ZM1366.1,195.4h51.1v172.6h-51.1v-172.6Z"/>
    <path class="st0" d="M1558.9,379.4l1.8-26.4c-11.3,11.2-27.8,19.1-43.3,19.1-42.9,0-70.6-34.1-70.6-90.4s35.2-90.5,71.6-90.5,32.4,6.5,46.1,21.2h1.3l4.3-17h40v236.7h-51.1v-52.6ZM1558.9,314.9v-70.9c-9-8.1-19.2-10.9-28.6-10.9-16.6,0-31.1,15.3-31.1,48.1s11.7,49.1,31.5,49.1,19.7-4.1,28.1-15.5Z"/>
  </g>
</svg>